<svg width="208" height="232" viewBox="0 0 208 232" fill="none" xmlns="http://www.w3.org/2000/svg">
<path d="M48.1165 3.36486C45.7165 6.43152 44.6499 10.0315 43.5832 18.5648C43.4499 19.6315 41.0499 20.9648 38.3832 21.6315C29.0499 23.7648 28.9165 24.8315 32.6499 47.3648C35.7165 66.2982 39.9832 96.8315 39.9832 100.432C39.9832 101.498 36.1165 102.698 29.0499 103.765C16.9165 105.632 6.3832 109.232 2.51654 112.698C-1.35013 116.165 -0.683463 121.765 3.9832 125.632C18.7832 138.165 76.3832 147.765 127.317 146.165C161.583 145.098 178.383 141.232 184.383 132.965C186.917 129.498 186.917 129.232 184.783 125.898C181.45 120.832 175.583 117.632 160.65 112.965C153.317 110.698 147.05 108.565 146.783 108.432C146.117 107.898 150.383 76.8315 154.783 50.6982C159.183 24.8315 159.317 25.3648 150.117 22.1648C145.317 20.5648 144.65 19.7649 143.317 13.7649C141.317 4.83152 139.183 1.36486 135.317 0.431523C130.25 -0.768477 124.65 2.16486 118.117 9.36486L112.25 15.8982H75.0499L70.7832 10.4315C62.2499 -0.101825 53.0499 -3.03514 48.1165 3.36486ZM64.7832 10.8315C73.0499 19.8982 79.9832 36.6982 81.8499 52.2982C82.7832 59.3649 82.6499 60.0315 80.5165 59.6315C78.7832 59.3649 77.7165 56.8315 76.5165 50.5648C74.1165 39.0982 71.1832 31.3649 67.0499 26.5648C60.1165 18.2982 54.2499 23.8982 57.1832 36.1648C58.7832 43.3648 65.4499 57.6315 69.0499 61.6315C70.9165 63.7649 70.9165 64.1649 69.3165 65.2315C66.5165 66.9649 63.7165 63.8982 58.2499 53.4982C51.7165 41.0982 49.3165 31.7648 49.3165 19.6315C49.3165 10.9648 49.7165 8.83152 51.9832 6.56486C54.3832 4.16486 55.0499 4.03152 58.3832 5.76485C60.3832 6.83152 63.3165 9.09818 64.7832 10.8315ZM137.317 8.69819C139.317 13.8982 138.917 27.8982 136.517 36.0315C134.383 43.4982 127.05 58.2982 122.917 63.4982C121.317 65.6315 120.117 66.1649 118.783 65.3649C117.317 64.4315 117.717 62.8315 121.183 57.2315C127.183 47.4982 130.65 38.0315 130.65 31.4982C130.65 24.0315 129.183 22.0315 124.783 23.0982C119.85 24.2982 114.117 35.2315 111.183 48.6982C109.717 56.0315 108.25 59.8982 107.05 59.8982C103.05 59.8982 107.05 37.7648 113.717 24.1648C121.05 8.96485 134.25 0.298186 137.317 8.69819ZM112.783 67.2315C125.717 73.6315 133.317 85.3649 134.383 100.832L135.05 110.565H131.45C122.65 110.565 114.917 118.965 116.65 126.698L117.583 130.565H107.717C99.0499 130.565 87.3165 129.365 75.0499 127.232C71.1832 126.565 70.6499 125.898 70.6499 122.432C70.6499 120.165 69.9832 117.232 69.3165 115.765C67.5832 112.565 61.1832 109.232 56.6499 109.232C53.4499 109.232 53.3165 108.965 53.3165 100.832C53.3165 83.6315 65.3165 68.8315 83.3165 63.7649C90.5165 61.7649 105.05 63.4982 112.783 67.2315ZM40.5 116.698C40.5 120.032 38.2499 119.898 36.6499 117.232C35.3165 115.098 36.9165 111.898 39.3165 111.898C40.5165 111.898 40.5 114.565 40.5 116.698ZM63.8499 116.698C67.3165 121.098 67.4499 124.165 63.9832 127.232C61.1832 129.765 57.3165 129.098 57.3165 125.898C57.3165 123.232 55.9832 123.365 53.8499 126.165C51.5832 129.365 47.4499 126.965 46.9165 122.165C45.8499 113.898 58.5165 109.898 63.8499 116.698ZM135.85 116.298C139.717 118.298 141.317 122.165 139.85 126.165C138.517 129.765 133.583 130.298 132.383 127.098C131.717 125.232 131.183 125.365 129.183 128.032C125.05 133.498 119.983 128.298 121.85 120.698C123.183 115.498 130.117 113.365 135.85 116.298ZM148.517 119.365C151.45 120.565 151.183 124.832 147.983 126.565C145.583 127.898 145.317 127.632 145.317 123.232C145.317 118.165 145.317 118.165 148.517 119.365Z" fill="white"/>
<path d="M67.4499 86.6983C60.3832 92.165 64.6499 102.565 73.8499 102.565C82.2499 102.565 85.4499 93.365 79.3166 87.2317C75.3166 83.2317 72.1165 83.0983 67.4499 86.6983ZM78.9165 89.4983C79.9832 92.2983 78.6499 94.565 75.8499 94.565C73.3166 94.565 72.2499 90.6983 74.2499 88.8317C75.7166 87.365 78.3832 87.765 78.9165 89.4983Z" fill="white"/>
<path d="M107.983 86.5648C104.517 90.0315 104.517 97.3648 107.717 100.298C110.25 102.565 116.783 103.231 119.45 101.498C122.25 99.7648 123.983 94.5648 123.183 91.2315C121.45 84.2981 112.917 81.6315 107.983 86.5648ZM114.383 90.9648C114.917 93.6315 111.05 95.4981 109.05 93.4981C107.05 91.4981 108.917 87.6315 111.583 88.1648C112.917 88.4315 114.117 89.6315 114.383 90.9648Z" fill="white"/>
<path d="M90.3831 99.4983C87.4498 100.298 87.4498 101.098 90.1165 105.098C92.7831 108.832 90.6498 112.032 87.3165 109.232C84.7831 107.098 83.0498 108.432 85.1831 110.965C87.3165 113.632 100.65 113.632 102.783 111.098C104.916 108.565 103.183 107.098 100.65 109.232C97.0498 112.165 95.3165 108.832 98.1165 104.565C100.116 101.498 100.116 100.832 98.5165 99.765C96.5165 98.565 94.2498 98.4317 90.3831 99.4983Z" fill="white"/>
<path d="M183.983 45.8985C183.983 46.8318 183.05 48.2985 181.85 48.9652C179.983 50.0318 180.117 50.5652 183.183 53.8985C185.717 56.5652 186.65 57.0985 186.65 55.4985C186.65 54.2985 187.85 52.6985 189.183 51.8985C191.717 50.5652 191.717 50.4318 188.517 47.2318C184.65 43.3652 183.983 43.2318 183.983 45.8985Z" fill="white"/>
<path d="M197.983 61.765L195.317 64.565L198.383 67.4984L201.317 70.4317L204.383 67.4984L207.317 64.565L204.25 61.4984C202.517 59.8984 201.05 58.565 200.917 58.6984C200.783 58.8317 199.45 60.165 197.983 61.765Z" fill="white"/>
<path d="M168.25 61.4984C166.117 64.1651 169.583 66.6984 172.383 64.5651C173.983 63.3651 174.25 62.6984 173.05 61.4984C171.05 59.4984 169.983 59.4984 168.25 61.4984Z" fill="white"/>
<path d="M168.65 84.8318C160.116 94.8318 153.45 103.632 153.716 104.432C155.183 108.965 159.183 105.499 172.116 89.0985C188.916 67.7652 188.516 68.2985 185.983 67.3652C184.65 66.8318 179.183 72.2985 168.65 84.8318Z" fill="white"/>
<path d="M191.05 80.5651C189.717 81.8985 189.85 82.6985 191.183 83.7651C192.517 84.8318 193.317 84.8318 194.517 83.3651C196.65 80.8318 193.317 78.0318 191.05 80.5651Z" fill="white"/>
<path d="M40.1165 162.165C39.3165 170.832 37.4498 185.098 35.9831 193.898C32.3831 215.632 32.5165 217.765 37.0498 220.965C44.7831 226.432 61.8498 230.165 84.6498 231.498C115.316 233.098 151.85 225.365 154.116 216.698C154.516 215.098 153.583 207.098 152.116 198.965C150.65 190.698 148.516 176.565 147.316 167.632C146.116 158.698 145.05 151.098 144.916 150.965C144.65 150.832 140.116 151.365 134.65 152.165C118.783 154.298 72.6498 152.698 57.3165 149.365C50.3831 147.898 43.9831 146.565 43.1831 146.565C42.3831 146.565 41.1831 152.965 40.1165 162.165ZM103.316 192.432L104.116 165.232H117.316L117.05 189.498L116.65 213.898L111.05 214.298C104.783 214.698 105.716 215.632 91.4498 197.365L82.7831 186.298L81.9831 213.898L69.7165 214.698L69.0498 191.765C68.6498 179.098 68.5165 167.898 68.9165 166.965C69.3165 165.898 71.9831 165.232 75.9831 165.232H82.5165L103.316 192.432Z" fill="white"/>
</svg>
