<?xml version="1.0" standalone="no"?>
<!DOCTYPE svg PUBLIC "-//W3C//DTD SVG 20010904//EN"
 "http://www.w3.org/TR/2001/REC-SVG-20010904/DTD/svg10.dtd">
<svg version="1.0" xmlns="http://www.w3.org/2000/svg"
 width="255.000000pt" height="211.000000pt" viewBox="0 0 255.000000 211.000000"
 preserveAspectRatio="xMidYMid meet">

<g transform="translate(0.000000,211.000000) scale(0.100000,-0.100000)"
fill="#000000" stroke="none">
<path d="M2074 1758 c-3 -4 4 -8 15 -8 27 0 26 -8 -1 -37 -25 -27 -23 -31 20
-39 21 -4 32 -3 32 5 0 6 -9 11 -20 11 -11 0 -20 4 -20 8 0 5 9 17 20 27 11
10 20 21 20 25 0 11 -60 18 -66 8z"/>
<path d="M1326 1753 c-14 -4 -17 -11 -12 -35 3 -17 6 -34 6 -38 0 -5 21 -20
46 -35 42 -25 54 -27 116 -23 58 5 74 10 95 31 l26 25 -49 25 c-80 40 -179 61
-228 50z"/>
<path d="M1220 1732 c-25 -9 -54 -22 -64 -28 -19 -12 -19 -13 8 -48 15 -20 29
-36 32 -36 2 0 27 11 54 25 51 26 61 46 44 89 -7 19 -16 19 -74 -2z"/>
<path d="M1950 1701 c0 -5 12 -11 27 -13 l27 -3 -32 -36 c-17 -20 -29 -39 -25
-43 10 -10 93 -7 93 4 0 6 -14 10 -31 10 l-30 0 30 37 c16 20 28 40 25 45 -7
11 -84 10 -84 -1z"/>
<path d="M1069 1633 c-42 -44 -89 -105 -89 -115 0 -8 88 -68 98 -68 7 0 66 91
98 150 1 3 -12 23 -29 43 l-32 38 -46 -48z"/>
<path d="M1591 1636 l-22 -23 37 -84 c19 -46 42 -98 49 -115 13 -31 14 -32 54
-21 34 9 41 15 41 37 -1 57 -77 197 -120 220 -13 7 -23 3 -39 -14z"/>
<path d="M1248 1625 c-25 -14 -55 -37 -66 -52 -23 -34 -72 -129 -72 -141 0
-16 144 -81 192 -88 53 -7 48 -17 78 130 27 132 27 132 -20 156 -49 25 -54 25
-112 -5z"/>
<path d="M1820 1610 c0 -5 11 -10 25 -10 32 0 31 -5 -5 -47 -17 -19 -28 -38
-25 -44 10 -14 98 -12 93 4 -3 6 -17 14 -32 17 l-27 5 30 29 c44 42 40 56 -14
56 -25 0 -45 -4 -45 -10z"/>
<path d="M1398 1468 c-14 -73 -24 -135 -21 -138 2 -3 37 -6 78 -8 63 -4 82 0
129 21 31 14 56 32 56 40 0 16 -43 124 -71 180 -19 37 -20 37 -83 37 l-63 0
-25 -132z"/>
<path d="M890 1492 c0 -4 20 -28 45 -52 l45 -44 37 18 37 18 -39 33 c-32 27
-49 34 -82 35 -24 0 -43 -4 -43 -8z"/>
<path d="M692 1439 c-72 -12 -148 -46 -172 -77 -94 -119 180 -311 615 -431
373 -102 774 -102 884 0 40 37 44 67 19 117 l-23 44 -142 4 c-132 4 -165 -1
-133 -21 19 -12 10 -42 -17 -55 -16 -8 -42 -29 -58 -48 -40 -45 -108 -55 -142
-22 -13 11 -23 27 -23 34 0 8 -29 17 -87 26 -187 27 -437 105 -534 166 -52 32
-81 72 -69 93 12 24 29 37 90 70 l53 29 -52 11 c-58 12 -101 32 -120 55 -15
18 -13 17 -89 5z"/>
<path d="M800 1445 c0 -11 85 -45 113 -45 32 0 34 10 9 33 -17 16 -122 25
-122 12z"/>
<path d="M1030 1400 l-25 -20 25 -20 c14 -10 47 -31 74 -46 l49 -27 24 27 c13
15 23 30 23 34 0 8 -121 72 -135 72 -6 0 -21 -9 -35 -20z"/>
<path d="M1738 1383 c-23 -6 -23 -11 5 -34 24 -20 72 -25 82 -9 5 9 -52 52
-65 49 -3 -1 -13 -3 -22 -6z"/>
<path d="M950 1351 c-14 -10 -44 -30 -67 -45 -32 -20 -43 -33 -43 -52 0 -21 4
-24 20 -19 12 4 20 2 20 -5 0 -8 9 -10 24 -6 15 4 26 1 29 -7 3 -9 16 -5 48
12 58 32 99 61 99 69 -1 6 -81 61 -100 69 -3 1 -16 -6 -30 -16z"/>
<path d="M1645 1348 c-63 -34 -64 -35 -52 -73 5 -19 15 -35 21 -35 9 0 122 63
135 76 2 2 -7 12 -20 23 -27 23 -54 26 -84 9z"/>
<path d="M1845 1320 c-27 -16 -58 -30 -69 -30 -10 0 -44 -14 -75 -32 -30 -18
-83 -40 -116 -49 -33 -9 -59 -21 -58 -25 1 -5 8 -24 15 -41 10 -26 10 -41 -1
-75 -18 -60 -19 -104 -2 -100 7 1 19 -2 26 -8 10 -8 15 -8 20 0 4 6 13 9 21 6
17 -7 47 21 68 63 24 45 20 102 -9 145 -23 33 -23 36 -4 26 11 -6 27 -27 36
-46 16 -33 18 -34 77 -32 34 0 84 -2 113 -6 84 -12 156 13 84 29 -16 3 -36 13
-43 22 -11 14 -11 15 2 10 72 -28 121 -40 131 -30 20 20 22 88 4 126 -38 80
-131 100 -220 47z m101 -61 c3 -6 17 -8 32 -4 22 5 24 4 13 -9 -21 -25 -71
-14 -71 16 0 12 18 10 26 -3z"/>
<path d="M1201 1314 c-11 -15 -18 -30 -15 -35 7 -11 130 -49 160 -49 17 0 28
8 35 27 5 14 8 31 6 36 -2 8 -128 45 -159 47 -4 0 -16 -12 -27 -26z"/>
<path d="M1484 1302 l-72 -3 -7 -35 c-3 -20 -3 -39 0 -43 9 -8 123 -7 157 2
25 7 26 9 16 40 -6 17 -13 34 -17 37 -3 3 -38 4 -77 2z"/>
<path d="M1083 1283 c-25 -10 -12 -23 57 -58 89 -45 224 -84 319 -92 61 -5 73
-4 67 8 -3 8 -9 22 -12 32 -5 12 -17 17 -44 17 -67 0 -197 30 -285 65 -47 19
-87 35 -88 34 -1 0 -8 -3 -14 -6z"/>
<path d="M783 992 c-6 -17 -66 -171 -168 -432 -37 -96 -54 -152 -50 -168 12
-49 85 -111 189 -162 296 -146 728 -185 842 -76 l33 31 15 290 c9 160 16 300
16 313 0 20 -5 22 -49 22 -64 0 -265 26 -361 46 -111 24 -284 78 -378 118 -74
31 -84 33 -89 18z m326 -271 c11 -25 43 -95 72 -156 l53 -110 17 75 c9 41 22
100 28 131 13 62 5 59 95 37 36 -9 38 -11 33 -41 -9 -48 -86 -400 -91 -413 -3
-9 -19 -8 -61 1 -31 8 -59 15 -61 17 -7 8 -134 279 -134 288 0 5 -4 11 -9 14
-4 3 -21 -53 -37 -125 l-28 -131 -37 6 c-21 3 -49 10 -63 15 -24 10 -24 10
-11 68 7 32 25 110 39 173 25 110 44 193 51 216 2 8 21 7 63 -4 58 -14 61 -16
81 -61z"/>
</g>
</svg>
