<svg width="219" height="300" viewBox="0 -40 219 300" fill="none" xmlns="http://www.w3.org/2000/svg">
    <defs>
        <!-- Gentle breathing animation for turtle body -->
        <animateTransform id="breathe" attributeName="transform" type="scale"
            values="1 1; 1.02 1.02; 1 1"
            dur="3s"
            repeatCount="indefinite"
            additive="sum" />

        <!-- Floating animation for Z's -->
        <animate id="float1" attributeName="opacity"
            values="0; 1; 1; 0"
            dur="4s"
            repeatCount="indefinite" />
        <animate id="float2" attributeName="opacity"
            values="0; 0; 1; 1; 0"
            dur="4s"
            repeatCount="indefinite" />
        <animate id="float3" attributeName="opacity"
            values="0; 0; 0; 1; 1; 0"
            dur="4s"
            repeatCount="indefinite" />
    </defs>

    <g id="Group">
        <!-- Z sleeping symbols with floating animation -->
        <g id="firstz">
            <path
                d="M175.795 20.3759C175.795 21.0425 177.262 21.7092 179.129 21.7092C183.395 21.7092 183.262 22.3759 178.462 27.9759C176.195 30.5092 174.729 33.0425 175.129 33.8425C176.462 35.7092 188.195 35.4425 187.529 33.3092C187.129 32.5092 185.262 31.4425 183.262 31.0425L179.662 30.3759L183.662 26.5092C189.529 20.9092 188.995 19.0425 181.795 19.0425C178.462 19.0425 175.795 19.5759 175.795 20.3759Z"
                fill="black">
                <animateTransform attributeName="transform" type="translate"
                    values="0 0; -3 -15; -6 -35"
                    dur="5s"
                    repeatCount="indefinite" />
                <animate attributeName="opacity"
                    values="0; 1; 1; 0"
                    dur="5s"
                    repeatCount="indefinite" />
            </path>
        </g>

        <g id="secondz">
            <path
                d="M193.129 8.2424C193.129 8.90907 194.729 9.70907 196.729 9.97573L200.329 10.3757L196.062 15.1757C193.795 17.8424 192.195 20.3757 192.729 20.9091C194.062 22.2424 205.129 21.8424 205.129 20.3757C205.129 19.5757 203.262 19.0424 200.995 19.0424H196.995L200.995 14.1091C203.129 11.4424 204.729 8.77573 204.329 8.10907C203.395 6.6424 193.129 6.77573 193.129 8.2424Z"
                fill="black">
                <animateTransform attributeName="transform" type="translate"
                    values="0 0; -2 -18; -4 -40"
                    dur="5s"
                    begin="1.5s"
                    repeatCount="indefinite" />
                <animate attributeName="opacity"
                    values="0; 0; 1; 1; 0"
                    dur="5s"
                    begin="1.5s"
                    repeatCount="indefinite" />
            </path>
        </g>

        <g id="thirdz">
            <path
                d="M209.662 0.642269C209.262 1.1756 210.195 1.70894 211.662 1.70894C215.262 1.70894 215.129 2.7756 211.529 6.64227C208.195 10.2423 208.462 10.7756 214.195 11.8423C216.995 12.3756 218.462 12.2423 218.462 11.1756C218.462 10.3756 217.262 9.70893 215.795 9.70893C214.329 9.70893 213.129 9.1756 213.129 8.64227C213.129 7.9756 214.329 6.3756 215.795 5.04227C217.262 3.70894 218.462 2.24227 218.462 1.70894C218.462 0.242269 210.462 -0.691065 209.662 0.642269Z"
                fill="black">
                <animateTransform attributeName="transform" type="translate"
                    values="0 0; -1 -20; -2 -45"
                    dur="5s"
                    begin="3s"
                    repeatCount="indefinite" />
                <animate attributeName="opacity"
                    values="0; 0; 0; 1; 1; 0"
                    dur="5s"
                    begin="3s"
                    repeatCount="indefinite" />
            </path>
        </g>

        <!-- Turtle body parts with gentle breathing -->
        <g id="turtle_body" transform-origin="110 110">
            <path id="Vector"
                d="M109.929 1.30894C108.062 1.84228 107.662 2.77561 108.329 5.97561C108.729 8.24228 109.129 10.5089 109.129 11.0423C109.129 11.7089 111.929 13.7089 115.262 15.7089C120.862 19.0423 122.462 19.3089 130.729 18.7756C138.462 18.1089 140.595 17.4423 143.395 14.6423L146.862 11.3089L140.329 7.97561C129.662 2.64228 116.462 -0.157722 109.929 1.30894Z"
                fill="black" />
            <path id="Vector_2"
                d="M95.7953 4.10915C92.4619 5.30915 88.5953 7.04248 87.2619 7.84248C84.7286 9.44248 84.7286 9.57581 88.3286 14.2425C90.3286 16.9091 92.1953 19.0425 92.5953 19.0425C92.8619 19.0425 96.1953 17.5758 99.7953 15.7091C106.595 12.2425 107.929 9.57581 105.662 3.84248C104.729 1.30915 103.529 1.30915 95.7953 4.10915Z"
                fill="black" />
            <path id="Vector_3"
                d="M75.6618 17.309C70.0618 23.1757 63.7952 31.309 63.7952 32.6423C63.7952 33.709 75.5285 41.709 76.8618 41.709C77.7952 41.709 85.6618 29.5757 89.9285 21.709C90.0618 21.309 88.3285 18.6423 86.0618 15.9756L81.7952 10.909L75.6618 17.309Z"
                fill="black" />
            <path id="Vector_4"
                d="M145.262 16.9092L142.329 19.9759L147.262 31.1759C149.795 37.3092 152.862 44.2426 153.795 46.5092C155.529 50.6426 155.662 50.7759 160.995 49.3092C165.529 48.1092 166.462 47.3092 166.462 44.3759C166.329 36.7759 156.195 18.1092 150.462 15.0426C148.729 14.1092 147.395 14.6426 145.262 16.9092Z"
                fill="black" />
            <path id="Vector_5"
                d="M99.5287 18.3754C96.1953 20.2421 92.1953 23.3088 90.7287 25.3088C87.662 29.8421 81.1287 42.5088 81.1287 44.1088C81.1287 46.2421 100.329 54.9088 106.729 55.8421C113.795 56.7754 113.129 58.1088 117.129 38.5088C120.729 20.9088 120.729 20.9088 114.462 17.7088C107.929 14.3754 107.262 14.3754 99.5287 18.3754Z"
                fill="black" />
            <path id="Vector_6"
                d="M119.529 39.3089C117.662 49.0423 116.329 57.3089 116.729 57.7089C116.995 58.1089 121.662 58.5089 127.129 58.7756C135.529 59.3089 138.062 58.7756 144.329 55.9756C148.462 54.1089 151.795 51.7089 151.795 50.6423C151.795 48.5089 146.062 34.1089 142.329 26.6423C139.795 21.7089 139.662 21.7089 131.262 21.7089H122.862L119.529 39.3089Z"
                fill="black" />
            <path id="Vector_7"
                d="M51.7952 36.1092C51.7952 36.6425 54.4618 39.8425 57.7952 43.0425L63.7952 48.9092L68.7285 46.5092L73.6618 44.1092L68.4618 39.7092C64.1952 36.1092 61.9285 35.1758 57.5285 35.0425C54.3285 35.0425 51.7952 35.5758 51.7952 36.1092Z"
                fill="black" />
            <path id="Vector_8"
                d="M25.3953 43.1756C15.7953 44.7756 5.66193 49.3089 2.46193 53.4422C-10.0714 69.3089 26.4619 94.9089 84.4619 110.909C134.195 124.509 187.662 124.509 202.329 110.909C207.662 105.976 208.195 101.976 204.862 95.3089L201.795 89.4422L182.862 88.9089C165.262 88.3756 160.862 89.0422 165.129 91.7089C167.662 93.3089 166.462 97.3089 162.862 99.0422C160.729 100.109 157.262 102.909 155.129 105.442C149.795 111.442 140.729 112.776 136.195 108.376C134.462 106.909 133.129 104.776 133.129 103.842C133.129 102.776 129.262 101.576 121.529 100.376C96.5953 96.7756 63.2619 86.3756 50.3286 78.2422C43.3953 73.9756 39.5286 68.6422 41.1286 65.8422C42.7286 62.6422 44.9953 60.9089 53.1286 56.5089L60.1953 52.6422L53.2619 51.1756C45.5286 49.5756 39.7953 46.9089 37.2619 43.8422C35.2619 41.4422 35.5286 41.5756 25.3953 43.1756Z"
                fill="black" />
            <path id="tail"
                d="M39.7952 42.3755C39.7952 43.8422 51.1285 48.3755 54.8618 48.3755C59.1285 48.3755 59.3952 47.0422 56.0618 43.9755C53.7952 41.8422 39.7952 40.6422 39.7952 42.3755Z"
                fill="black" />
            <path id="Vector_9"
                d="M70.462 48.3757L67.1287 51.0424L70.462 53.709C72.3287 55.0424 76.7287 57.8424 80.3287 59.8424L86.862 63.4424L90.062 59.8424C91.7953 57.8424 93.1287 55.8424 93.1287 55.309C93.1287 54.2424 76.9953 45.709 75.1287 45.709C74.3287 45.709 72.3287 46.909 70.462 48.3757Z"
                fill="black" />
            <path id="Vector_10"
                d="M164.862 50.6424C161.795 51.4424 161.795 52.1091 165.529 55.1757C168.729 57.8424 175.129 58.5091 176.462 56.3757C177.129 55.1757 169.529 49.4424 167.795 49.8424C167.395 49.9757 166.062 50.2424 164.862 50.6424Z"
                fill="black" />
            <path id="Vector_11"
                d="M59.7953 54.9092C57.9287 56.2425 53.9287 58.9092 50.862 60.9092C46.5953 63.5758 45.1287 65.3092 45.1287 67.8425C45.1287 70.6425 45.662 71.0425 47.7953 70.3758C49.3953 69.8425 50.462 70.1092 50.462 71.0425C50.462 72.1092 51.662 72.3758 53.662 71.8425C55.662 71.3092 57.1287 71.7092 57.5287 72.7758C57.9287 73.9758 59.662 73.4425 63.9287 71.1758C71.662 66.9092 77.1287 63.0425 77.1287 61.9758C76.9953 61.1758 66.3287 53.8425 63.7953 52.7758C63.3953 52.6425 61.662 53.5758 59.7953 54.9092Z"
                fill="black" />
            <path id="Vector_12"
                d="M152.462 55.309C144.062 59.8423 143.929 59.9757 145.529 65.0423C146.195 67.5757 147.529 69.709 148.329 69.709C149.529 69.709 164.595 61.309 166.329 59.5757C166.595 59.309 165.395 57.9757 163.662 56.509C160.062 53.4423 156.462 53.0423 152.462 55.309Z"
                fill="black" />
            <path id="headlegs"
                d="M179.129 59.0423C175.529 61.1756 171.395 63.0423 169.929 63.0423C168.595 63.0423 164.062 64.9089 159.929 67.3089C155.929 69.7089 148.862 72.6423 144.462 73.8423C140.062 75.0423 136.595 76.6423 136.729 77.1756C136.862 77.8423 137.795 80.3756 138.729 82.6423C140.062 86.109 140.062 88.109 138.595 92.6423C136.195 100.642 136.062 106.509 138.329 105.976C139.262 105.842 140.862 106.242 141.795 107.042C143.129 108.109 143.795 108.109 144.462 107.042C144.995 106.242 146.195 105.842 147.262 106.242C149.529 107.176 153.529 103.442 156.329 97.8423C159.529 91.8423 158.995 84.2423 155.129 78.509C152.062 74.109 152.062 73.709 154.595 75.0423C156.062 75.8423 158.195 78.6423 159.395 81.1756C161.529 85.5756 161.795 85.709 169.662 85.4423C174.195 85.4423 180.862 85.709 184.729 86.2423C195.929 87.8423 205.529 84.509 195.929 82.3756C193.795 81.9756 191.129 80.6423 190.195 79.4423C188.729 77.5756 188.729 77.4423 190.462 78.109C200.062 81.8423 206.595 83.4423 207.929 82.109C210.595 79.4423 210.862 70.3756 208.462 65.3089C203.395 54.6423 190.995 51.9756 179.129 59.0423ZM192.595 67.1756C192.995 67.9756 194.862 68.2423 196.862 67.7089C199.795 67.0423 200.062 67.1756 198.595 68.9089C195.795 72.2423 189.129 70.7756 189.129 66.7756C189.129 65.1756 191.529 65.4423 192.595 67.1756Z"
                fill="black" />
            <path id="Vector_13"
                d="M93.2618 59.8425C91.7952 61.8425 90.8618 63.8425 91.2618 64.5091C92.1952 65.9758 108.595 71.0425 112.595 71.0425C114.862 71.0425 116.329 69.9758 117.262 67.4425C117.929 65.5758 118.329 63.3091 118.062 62.6425C117.795 61.5758 100.995 56.6425 96.8618 56.3758C96.3285 56.3758 94.7285 57.9758 93.2618 59.8425Z"
                fill="black" />
            <path id="Vector_14"
                d="M130.995 61.4425L121.395 61.8425L120.462 66.5092C120.062 69.1759 120.062 71.7092 120.462 72.2425C121.662 73.3092 136.862 73.1759 141.395 71.9759C144.729 71.0425 144.862 70.7759 143.529 66.6425C142.729 64.3759 141.795 62.1092 141.262 61.7092C140.862 61.3092 136.195 61.1759 130.995 61.4425Z"
                fill="black" />
            <path id="abdomen"
                d="M77.5287 63.9756C74.1953 65.309 75.9287 67.0423 85.1287 71.709C96.9953 77.709 114.995 82.909 127.662 83.9756C135.795 84.6423 137.395 84.509 136.595 82.909C136.195 81.8423 135.395 79.9756 134.995 78.6423C134.329 77.0423 132.729 76.3756 129.129 76.3756C120.195 76.3756 102.862 72.3756 91.1287 67.709C84.862 65.1756 79.5287 63.0423 79.3953 63.1756C79.262 63.1756 78.3287 63.5756 77.5287 63.9756Z"
                fill="black" />
            <path id="Vector_15"
                d="M37.5287 102.776C36.7287 105.042 28.7287 125.576 15.1287 160.376C10.1954 173.176 7.92871 180.642 8.46205 182.776C10.062 189.309 19.7954 197.576 33.662 204.376C73.1287 223.842 130.729 229.042 145.929 214.509L150.329 210.376L152.329 171.709C153.529 150.376 154.462 131.709 154.462 129.976C154.462 127.309 153.795 127.042 147.929 127.042C139.395 127.042 112.595 123.576 99.7954 120.909C84.9954 117.709 61.9287 110.509 49.3954 105.176C39.5287 101.042 38.1954 100.776 37.5287 102.776ZM80.9954 138.909C82.462 142.242 86.7287 151.576 90.5954 159.709L97.662 174.376L99.9287 164.376C101.129 158.909 102.862 151.042 103.662 146.909C105.395 138.642 104.329 139.042 116.329 141.976C121.129 143.176 121.395 143.442 120.729 147.442C119.529 153.842 109.262 200.776 108.595 202.509C108.195 203.709 106.062 203.576 100.462 202.376C96.3287 201.309 92.5954 200.376 92.3287 200.109C91.3954 199.042 74.4621 162.909 74.4621 161.709C74.4621 161.042 73.9287 160.242 73.2621 159.842C72.7287 159.442 70.4621 166.909 68.3287 176.509L64.5954 193.976L59.6621 193.176C56.8621 192.776 53.1287 191.842 51.2621 191.176C48.0621 189.842 48.0621 189.842 49.7954 182.109C50.7287 177.842 53.1287 167.442 54.9954 159.042C58.3287 144.376 60.8621 133.309 61.7954 130.242C62.0621 129.176 64.5954 129.309 70.1954 130.776C77.9287 132.642 78.3287 132.909 80.9954 138.909Z"
                fill="black" />

            <!-- Breathing animation -->
            <animateTransform attributeName="transform" type="scale"
                additive="sum"
                values="1 1; 1.015 1.015; 1 1"
                dur="3s"
                repeatCount="indefinite" />
        </g>
    </g>
</svg>